<?xml version="1.0" encoding="UTF-8" standalone="no"?>
<!DOCTYPE svg PUBLIC "-//W3C//DTD SVG 1.1//EN"
 "http://www.w3.org/Graphics/SVG/1.1/DTD/svg11.dtd">
<!-- Generated by graphviz version 2.43.0 (0)
 -->
<!-- Title: G Pages: 1 -->
<svg width="813pt" height="196pt"
 viewBox="0.00 0.00 813.00 196.00" xmlns="http://www.w3.org/2000/svg" xmlns:xlink="http://www.w3.org/1999/xlink">
<g id="graph0" class="graph" transform="scale(1 1) rotate(0) translate(4 192)">
<title>G</title>
<polygon fill="#343541" stroke="transparent" points="-4,4 -4,-192 809,-192 809,4 -4,4"/>
<text text-anchor="middle" x="402.5" y="-172.8" font-family="Times,serif" font-size="14.00" fill="white">Wade&#45;Bot Architecture</text>
<g id="clust1" class="cluster">
<title>cluster_players</title>
<polygon fill="#343541" stroke="transparent" points="8,-8 8,-157 447,-157 447,-8 8,-8"/>
<text text-anchor="middle" x="227.5" y="-141.8" font-family="Times,serif" font-size="14.00" fill="white">Players Schema</text>
</g>
<g id="clust2" class="cluster">
<title>cluster_sbc</title>
<polygon fill="#343541" stroke="transparent" points="455,-8 455,-157 619,-157 619,-8 455,-8"/>
<text text-anchor="middle" x="537" y="-141.8" font-family="Times,serif" font-size="14.00" fill="white">SBC Schema</text>
</g>
<g id="clust3" class="cluster">
<title>cluster_chem_styles</title>
<polygon fill="#343541" stroke="transparent" points="627,-8 627,-157 797,-157 797,-8 627,-8"/>
<text text-anchor="middle" x="712" y="-141.8" font-family="Times,serif" font-size="14.00" fill="white">Chem_Styles Schema</text>
</g>
<!-- players -->
<g id="node1" class="node">
<title>players</title>
<path fill="#aec6cf" stroke="grey" d="M233,-126C233,-126 189,-126 189,-126 183,-126 177,-120 177,-114 177,-114 177,-100 177,-100 177,-94 183,-88 189,-88 189,-88 233,-88 233,-88 239,-88 245,-94 245,-100 245,-100 245,-114 245,-114 245,-120 239,-126 233,-126"/>
<text text-anchor="middle" x="211" y="-110.8" font-family="Helvetica,sans-Serif" font-size="14.00" fill="#343541">players</text>
<text text-anchor="middle" x="211" y="-95.8" font-family="Helvetica,sans-Serif" font-size="14.00" fill="#343541">(p_oid)</text>
</g>
<!-- prices -->
<g id="node2" class="node">
<title>prices</title>
<path fill="#aec6cf" stroke="grey" d="M63.5,-52C63.5,-52 28.5,-52 28.5,-52 22.5,-52 16.5,-46 16.5,-40 16.5,-40 16.5,-28 16.5,-28 16.5,-22 22.5,-16 28.5,-16 28.5,-16 63.5,-16 63.5,-16 69.5,-16 75.5,-22 75.5,-28 75.5,-28 75.5,-40 75.5,-40 75.5,-46 69.5,-52 63.5,-52"/>
<text text-anchor="middle" x="46" y="-30.3" font-family="Helvetica,sans-Serif" font-size="14.00" fill="#343541">prices</text>
</g>
<!-- players&#45;&gt;prices -->
<g id="edge1" class="edge">
<title>players&#45;&gt;prices</title>
<path fill="none" stroke="#aaaaaa" d="M176.75,-91.39C151.4,-80.56 116.02,-65.41 85,-52 84.91,-51.96 84.81,-51.92 84.72,-51.88"/>
<polygon fill="#aaaaaa" stroke="#aaaaaa" points="86.37,-48.78 75.8,-48.01 83.59,-55.2 86.37,-48.78"/>
</g>
<!-- in_game_stats -->
<g id="node3" class="node">
<title>in_game_stats</title>
<path fill="#aec6cf" stroke="grey" d="M198,-52C198,-52 106,-52 106,-52 100,-52 94,-46 94,-40 94,-40 94,-28 94,-28 94,-22 100,-16 106,-16 106,-16 198,-16 198,-16 204,-16 210,-22 210,-28 210,-28 210,-40 210,-40 210,-46 204,-52 198,-52"/>
<text text-anchor="middle" x="152" y="-30.3" font-family="Helvetica,sans-Serif" font-size="14.00" fill="#343541">in_game_stats</text>
</g>
<!-- players&#45;&gt;in_game_stats -->
<g id="edge2" class="edge">
<title>players&#45;&gt;in_game_stats</title>
<path fill="none" stroke="#aaaaaa" d="M195.81,-87.72C188.73,-79.2 180.2,-68.94 172.56,-59.74"/>
<polygon fill="#aaaaaa" stroke="#aaaaaa" points="175.21,-57.46 166.13,-52 169.83,-61.93 175.21,-57.46"/>
</g>
<!-- playstyles -->
<g id="node4" class="node">
<title>playstyles</title>
<path fill="#aec6cf" stroke="grey" d="M302,-52C302,-52 240,-52 240,-52 234,-52 228,-46 228,-40 228,-40 228,-28 228,-28 228,-22 234,-16 240,-16 240,-16 302,-16 302,-16 308,-16 314,-22 314,-28 314,-28 314,-40 314,-40 314,-46 308,-52 302,-52"/>
<text text-anchor="middle" x="271" y="-30.3" font-family="Helvetica,sans-Serif" font-size="14.00" fill="#343541">playstyles</text>
</g>
<!-- players&#45;&gt;playstyles -->
<g id="edge3" class="edge">
<title>players&#45;&gt;playstyles</title>
<path fill="none" stroke="#aaaaaa" d="M226.45,-87.72C233.65,-79.2 242.32,-68.94 250.09,-59.74"/>
<polygon fill="#aaaaaa" stroke="#aaaaaa" points="252.85,-61.9 256.63,-52 247.5,-57.38 252.85,-61.9"/>
</g>
<!-- fodder_index -->
<g id="node5" class="node">
<title>fodder_index</title>
<path fill="#aec6cf" stroke="grey" d="M427.5,-52C427.5,-52 344.5,-52 344.5,-52 338.5,-52 332.5,-46 332.5,-40 332.5,-40 332.5,-28 332.5,-28 332.5,-22 338.5,-16 344.5,-16 344.5,-16 427.5,-16 427.5,-16 433.5,-16 439.5,-22 439.5,-28 439.5,-28 439.5,-40 439.5,-40 439.5,-46 433.5,-52 427.5,-52"/>
<text text-anchor="middle" x="386" y="-30.3" font-family="Helvetica,sans-Serif" font-size="14.00" fill="#343541">fodder_index</text>
</g>
<!-- players&#45;&gt;fodder_index -->
<g id="edge4" class="edge">
<title>players&#45;&gt;fodder_index</title>
<path fill="none" stroke="#aaaaaa" d="M245.16,-92.14C270.54,-81.84 305.6,-67.62 334.39,-55.94"/>
<polygon fill="#aaaaaa" stroke="#aaaaaa" points="335.94,-59.09 343.89,-52.08 333.31,-52.6 335.94,-59.09"/>
</g>
<!-- SBC -->
<g id="node6" class="node">
<title>SBC</title>
<path fill="#f4c2c2" stroke="grey" d="M556,-126C556,-126 518,-126 518,-126 512,-126 506,-120 506,-114 506,-114 506,-100 506,-100 506,-94 512,-88 518,-88 518,-88 556,-88 556,-88 562,-88 568,-94 568,-100 568,-100 568,-114 568,-114 568,-120 562,-126 556,-126"/>
<text text-anchor="middle" x="537" y="-110.8" font-family="Helvetica,sans-Serif" font-size="14.00" fill="#343541">SBC</text>
<text text-anchor="middle" x="537" y="-95.8" font-family="Helvetica,sans-Serif" font-size="14.00" fill="#343541">(s_oid)</text>
</g>
<!-- SBC_Requirements -->
<g id="node7" class="node">
<title>SBC_Requirements</title>
<path fill="#f4c2c2" stroke="grey" d="M598.5,-52C598.5,-52 475.5,-52 475.5,-52 469.5,-52 463.5,-46 463.5,-40 463.5,-40 463.5,-28 463.5,-28 463.5,-22 469.5,-16 475.5,-16 475.5,-16 598.5,-16 598.5,-16 604.5,-16 610.5,-22 610.5,-28 610.5,-28 610.5,-40 610.5,-40 610.5,-46 604.5,-52 598.5,-52"/>
<text text-anchor="middle" x="537" y="-30.3" font-family="Helvetica,sans-Serif" font-size="14.00" fill="#343541">SBC_Requirements</text>
</g>
<!-- SBC&#45;&gt;SBC_Requirements -->
<g id="edge5" class="edge">
<title>SBC&#45;&gt;SBC_Requirements</title>
<path fill="none" stroke="#aaaaaa" d="M537,-87.72C537,-79.97 537,-70.79 537,-62.27"/>
<polygon fill="#aaaaaa" stroke="#aaaaaa" points="540.5,-62 537,-52 533.5,-62 540.5,-62"/>
</g>
<!-- chem_styles -->
<g id="node8" class="node">
<title>chem_styles</title>
<path fill="#cdb4db" stroke="grey" d="M751,-126C751,-126 673,-126 673,-126 667,-126 661,-120 661,-114 661,-114 661,-100 661,-100 661,-94 667,-88 673,-88 673,-88 751,-88 751,-88 757,-88 763,-94 763,-100 763,-100 763,-114 763,-114 763,-120 757,-126 751,-126"/>
<text text-anchor="middle" x="712" y="-110.8" font-family="Helvetica,sans-Serif" font-size="14.00" fill="#343541">chem_styles</text>
<text text-anchor="middle" x="712" y="-95.8" font-family="Helvetica,sans-Serif" font-size="14.00" fill="#343541">(cs_oid)</text>
</g>
<!-- chem_styles_prices -->
<g id="node9" class="node">
<title>chem_styles_prices</title>
<path fill="#cdb4db" stroke="grey" d="M775.5,-52C775.5,-52 648.5,-52 648.5,-52 642.5,-52 636.5,-46 636.5,-40 636.5,-40 636.5,-28 636.5,-28 636.5,-22 642.5,-16 648.5,-16 648.5,-16 775.5,-16 775.5,-16 781.5,-16 787.5,-22 787.5,-28 787.5,-28 787.5,-40 787.5,-40 787.5,-46 781.5,-52 775.5,-52"/>
<text text-anchor="middle" x="712" y="-30.3" font-family="Helvetica,sans-Serif" font-size="14.00" fill="#343541">chem_styles_prices</text>
</g>
<!-- chem_styles&#45;&gt;chem_styles_prices -->
<g id="edge6" class="edge">
<title>chem_styles&#45;&gt;chem_styles_prices</title>
<path fill="none" stroke="#aaaaaa" d="M712,-87.72C712,-79.97 712,-70.79 712,-62.27"/>
<polygon fill="#aaaaaa" stroke="#aaaaaa" points="715.5,-62 712,-52 708.5,-62 715.5,-62"/>
</g>
</g>
</svg>
