<?xml version="1.0" encoding="utf-8"?>
<!DOCTYPE svg PUBLIC "-//W3C//DTD SVG 1.0//EN" "http://www.w3.org/TR/2001/REC-SVG-20010904/DTD/svg10.dtd">
<svg version="1.0" xmlns="http://www.w3.org/2000/svg" width="1024px" height="1024px" viewBox="0 0 1024 1024" preserveAspectRatio="xMidYMid meet">
 <g fill="#bfc1c5">
  <path d="M424.40 774.45 c-0.70 -2.05 -3.20 -8.75 -5.55 -14.95 -2.30 -6.20 -5.50 -14.60 -7 -18.75 -1.55 -4.10 -4.95 -13.10 -7.60 -20 -2.70 -6.85 -5.50 -14.20 -6.25 -16.25 -2.35 -6.45 -9.50 -25.10 -10.80 -28.15 -0.65 -1.60 -1.20 -3.35 -1.20 -3.90 0 -1.25 2.65 -9.25 24.90 -76.05 11.25 -33.65 18.05 -53.40 18.45 -53.40 0.90 0 0.85 3.75 -0.10 4.70 -0.80 0.75 -1 1.80 -0.35 1.80 0.20 0.05 16.95 0.10 37.25 0.20 31.30 0.15 36.85 0.10 36.85 -0.50 0 -1.45 1.45 -0.65 1.75 1 0.25 1.30 -0.40 3.90 -3 11.60 -6.30 18.80 -16.10 46.65 -23.55 66.95 -1.20 3.30 -3.55 9.95 -5.25 14.75 -1.65 4.80 -4.20 11.90 -5.55 15.75 -1.35 3.85 -4.25 12.05 -6.40 18.25 -2.15 6.20 -5.95 16.90 -8.50 23.75 -6.35 17.30 -8.80 24.25 -14.55 41 -2.75 8 -5.80 16.65 -6.70 19.25 -0.95 2.60 -2.40 7 -3.25 9.75 -2.35 7.60 -2.15 7.40 -3.60 3.20z"/>
  <path d="M597.05 771.10 c-4.70 -13.70 -10.05 -29.10 -11.80 -34.10 -1 -2.90 -2.25 -6.50 -2.75 -8 -0.50 -1.50 -2.40 -6.90 -4.25 -12 -1.85 -5.10 -3.55 -9.90 -3.85 -10.75 -1.80 -5.30 -7.45 -21.15 -10.50 -29.50 -1.10 -3 -2.50 -6.95 -3.15 -8.75 -0.65 -1.80 -2.90 -8.10 -4.95 -14 -2.05 -5.90 -5.10 -14.55 -6.80 -19.25 -1.70 -4.65 -4.50 -12.55 -6.25 -17.50 -1.75 -4.95 -4.75 -13.50 -6.75 -19 -5 -13.90 -14.45 -41.45 -15.30 -44.65 -0.65 -2.35 -0.65 -2.90 0.10 -5.35 1.05 -3.30 2.40 -3.85 2.10 -0.80 l-0.15 1.95 4 0.35 c2.20 0.15 18.20 0.20 35.50 0 17.35 -0.15 32.10 -0.30 32.90 -0.25 1.15 0 1.35 -0.20 1.35 -1.45 0 -0.80 -0.20 -1.55 -0.45 -1.65 -0.55 -0.20 -3.55 -9.30 -3.55 -10.80 0 -0.60 -0.20 -1.10 -0.40 -1.10 -0.55 0 -1.60 -3.45 -1.60 -5.20 0 -2.15 1.25 -1.50 2.10 1.10 0.40 1.30 3.15 9.65 6.05 18.60 2.90 8.95 6.75 20.55 8.55 25.75 1.75 5.25 9.80 29.30 17.80 53.50 l14.60 44 -3.75 9.75 c-2.10 5.35 -4.90 12.80 -6.30 16.50 -1.35 3.70 -4.85 12.85 -7.70 20.25 -2.90 7.45 -7.40 19.45 -10.10 26.75 -5.10 13.95 -11.70 31 -12.20 31.60 -0.15 0.15 -1.30 -2.55 -2.50 -6z"/>
  <path d="M368.05 620.45 c-0.35 -1.20 -2.05 -6 -3.80 -10.70 -1.75 -4.65 -6.05 -16.35 -9.50 -26 -3.50 -9.60 -9.05 -24.70 -12.35 -33.50 -3.30 -8.80 -7.40 -19.95 -9.15 -24.75 -1.70 -4.80 -4.85 -13.25 -7 -18.75 -2.10 -5.50 -4.80 -12.70 -6 -16 -2.55 -7.10 -8.25 -22.60 -12.10 -32.75 -1.50 -4 -4.40 -11.75 -6.40 -17.25 -4.10 -11.15 -8.30 -22.45 -11.25 -30 -1.10 -2.75 -3.75 -9.85 -5.90 -15.75 -2.20 -5.90 -4.45 -11.95 -5.05 -13.35 l-1.05 -2.65 1.20 0 c0.90 0 1.35 0.40 1.75 1.55 0.30 0.90 0.55 2 0.55 2.50 0 0.55 0.25 0.95 0.50 0.95 0.30 0 0.50 0.55 0.50 1.20 0 0.65 0.20 1.30 0.45 1.40 0.50 0.20 6.55 16.70 6.55 17.95 0 0.55 0.25 0.95 0.50 0.95 0.30 0 0.50 0.55 0.50 1.25 0 0.70 0.20 1.25 0.40 1.25 0.45 0 2.10 4.35 2.10 5.60 0 0.45 0.20 0.90 0.40 1 0.50 0.20 3.10 7.35 3.10 8.55 0 0.45 0.20 0.85 0.40 0.85 0.50 0 2.10 4.35 2.10 5.65 0 0.45 0.25 0.85 0.50 0.85 0.30 0 0.50 0.55 0.50 1.20 0 0.65 0.20 1.30 0.40 1.40 0.40 0.15 5.70 14.45 6.75 18.15 0.35 1.10 0.70 2.10 0.90 2.25 0.50 0.45 1.95 4.50 1.95 5.45 0 0.55 0.20 1.05 0.45 1.15 0.30 0.10 0.80 1.30 1.15 2.65 0.35 1.40 0.80 2.60 1 2.75 0.20 0.15 0.65 1.40 1 2.75 0.35 1.40 0.75 2.60 0.95 2.75 0.50 0.45 4.45 11.45 4.45 12.50 0 0.55 0.25 1 0.50 1 0.30 0 0.50 0.70 0.50 1.50 0 0.85 0.25 1.50 0.50 1.50 0.30 0 0.75 1 1.10 2.25 0.35 1.25 0.80 2.25 1.05 2.25 0.55 0 6.85 -6.20 6.85 -6.75 0 -0.55 2.70 -3.25 3.25 -3.25 0.30 0 2.10 -1.70 4 -3.75 1.95 -2.05 3.85 -3.75 4.25 -3.75 0.85 0 5.15 -4.30 5.65 -5.60 0.15 -0.50 0.60 -0.90 0.95 -0.90 0.85 0 4.90 -3.60 4.90 -4.40 0 -0.30 0.35 -0.60 0.80 -0.60 0.45 0 0.90 -0.45 1.05 -1 0.15 -0.55 0.55 -1 0.90 -1 0.85 0 6.25 -5 6.25 -5.75 0 -0.75 3.25 -3.75 4.10 -3.75 0.35 0 2.55 -2.15 4.80 -4.75 2.25 -2.60 4.40 -4.75 4.80 -4.75 1.05 0 10.30 -8.95 10.30 -10 0 -0.50 0.45 -1 1 -1.15 0.60 -0.15 1 -0.70 1 -1.30 0 -1.95 1.35 -1.10 1.95 1.25 0.30 1.25 1.70 5.10 3.10 8.60 1.40 3.50 3.35 8.55 4.30 11.25 2.45 7.10 13.85 36.30 15.10 38.70 l1 2.05 -8.65 25.70 c-8.80 26 -10.85 32 -17.30 50.40 -1.95 5.65 -3.90 11.15 -4.25 12.25 -0.35 1.10 -3.70 10.90 -7.40 21.75 -3.70 10.85 -6.80 20.05 -6.95 20.45 -0.10 0.40 -0.50 -0.30 -0.85 -1.50z"/>
  <path d="M655.65 620.50 c-0.40 -1.55 -0.35 -2 0.10 -2 0.35 0 0.75 -0.90 0.95 -2 0.25 -1.70 0.50 -2 1.50 -2 l1.20 0 -1.35 4 c-0.70 2.20 -1.40 4 -1.55 4 -0.15 0 -0.55 -0.90 -0.85 -2z"/>
  <path d="M654.80 617.60 c-0.30 -0.50 -2.60 -6.50 -4.05 -10.60 -0.65 -1.80 -1.30 -3.65 -1.50 -4.10 -0.30 -0.70 -0.10 -0.90 0.85 -0.90 1 0 1.35 0.50 2.55 4.15 0.75 2.25 1.35 4.40 1.35 4.75 0 0.30 0.20 0.60 0.40 0.60 0.55 0 1.60 3.45 1.60 5.20 0 1.25 -0.65 1.75 -1.20 0.90z"/>
  <path d="M658.50 612.70 c0 -1.65 1.05 -5.20 1.50 -5.20 0.20 0 0.50 -0.90 0.70 -2 0.25 -1.70 0.50 -2 1.55 -2 l1.20 0 -1.75 4.85 c-0.95 2.65 -1.85 5 -2 5.25 -0.55 0.85 -1.20 0.35 -1.20 -0.90z"/>
  <path d="M662.60 600.75 c0.15 -1.30 0.50 -2.50 0.75 -2.70 0.20 -0.15 0.70 -1.40 1.05 -2.80 0.35 -1.35 0.85 -2.55 1.15 -2.65 0.25 -0.10 0.45 -0.55 0.45 -0.95 0 -0.45 0.25 -1.65 0.60 -2.70 0.45 -1.55 0.80 -1.95 1.75 -1.95 0.60 0 1.15 0.05 1.15 0.15 0 0.05 -1.30 3.55 -2.90 7.80 -2.95 8.05 -4.50 10.20 -4 5.80z"/>
  <path d="M648.75 601 c-0.20 -0.30 -3.45 -9.70 -7.25 -20.90 -3.80 -11.20 -9.75 -28.45 -13.15 -38.35 -12.90 -37.30 -16.90 -49.70 -16.40 -50.60 0.25 -0.50 2.45 -5.85 4.80 -11.90 2.40 -6.05 4.65 -11.65 5 -12.50 0.35 -0.80 1.20 -2.95 1.85 -4.70 1.35 -3.75 2.40 -4.55 2.40 -1.85 0 1 -0.20 1.80 -0.50 1.80 -0.25 0 -0.50 0.70 -0.50 1.50 0 1 -0.25 1.50 -0.75 1.50 -0.50 0 -0.75 0.50 -0.75 1.60 0 1.80 -1 4.90 -1.60 4.90 -0.20 0 -0.40 0.55 -0.40 1.20 0 0.70 -0.35 1.55 -0.75 2 -0.40 0.40 -0.75 1.05 -0.75 1.40 0 0.80 -4.05 11.05 -4.50 11.40 -0.20 0.15 -0.50 1.10 -0.70 2.10 -0.20 1 -0.55 1.90 -0.75 2 -0.25 0.10 1.45 5.80 3.75 12.65 2.30 6.90 4.20 13 4.20 13.60 0 0.60 0.20 1.15 0.40 1.25 0.55 0.20 6.60 17.95 6.60 19.30 0 0.55 0.20 1.10 0.45 1.20 0.45 0.20 3.05 7.75 3.05 9 0 0.45 0.20 0.90 0.45 1 0.45 0.20 3.05 7.75 3.05 9 0 0.45 0.20 0.90 0.45 1 0.55 0.20 7.05 19.80 7.05 21.30 0 0.60 0.20 1.10 0.45 1.10 0.55 0 1.55 2.75 1.55 4.30 0 0.60 0.20 1.20 0.45 1.30 0.60 0.20 4.05 10.90 4.05 12.55 0 1.35 -0.65 1.80 -1.25 0.85z"/>
  <path d="M668.50 585.05 c0 -1.75 0.95 -4.55 1.55 -4.55 0.25 0 0.45 -0.50 0.45 -1.10 0 -1.50 1.60 -5.90 2.10 -5.90 0.20 0 0.40 -0.65 0.40 -1.50 0 -0.80 0.25 -1.50 0.50 -1.50 0.30 0 0.50 -0.55 0.50 -1.25 0 -0.70 0.20 -1.25 0.45 -1.25 0.25 0 0.55 -0.90 0.75 -2 0.25 -1.75 0.50 -2 1.60 -2 1.05 0 1.25 0.20 0.95 0.90 -0.70 1.70 -6.15 16.40 -7.05 19 -1 2.85 -2.20 3.50 -2.20 1.15z"/>
  <path d="M677 562.05 c0 -1.60 1.95 -7.20 2.60 -7.45 0.20 -0.10 0.40 -0.85 0.40 -1.65 0 -0.80 0.25 -1.45 0.50 -1.45 0.30 0 0.50 -0.55 0.50 -1.25 0 -1 0.25 -1.25 1.25 -1.25 l1.20 0 -2.05 5.65 c-1.10 3.05 -2.25 6.35 -2.55 7.25 -0.65 2 -1.85 2.15 -1.85 0.15z"/>
  <path d="M682.50 547.15 c0 -2.55 0.55 -3.65 1.75 -3.65 l1.15 0 -0.80 2.50 c-0.85 2.70 -2.10 3.40 -2.10 1.15z"/>
  <path d="M500.80 545.40 c-0.15 -0.65 -0.30 -1.55 -0.30 -2.05 0 -0.50 -0.35 -1.25 -0.75 -1.65 -0.95 -0.95 -1 -4.20 -0.10 -4.20 0.40 0 1.35 1.90 2.25 4.50 l1.55 4.50 -1.15 0 c-0.80 0 -1.30 -0.35 -1.50 -1.10z"/>
  <path d="M523.60 540.50 c1.25 -3.35 2.40 -4 2.40 -1.25 0 0.95 -0.20 1.75 -0.50 1.75 -0.25 0 -0.50 0.55 -0.50 1.25 0 1 -0.25 1.25 -1.25 1.25 l-1.20 0 1.05 -3z"/>
  <path d="M684.65 540.70 c0.10 -1.30 0.45 -2.45 0.70 -2.65 0.30 -0.15 0.65 -1.15 0.85 -2.15 0.20 -1.05 0.55 -1.90 0.80 -1.90 0.30 0 0.50 -0.35 0.50 -0.80 0 -0.45 0.25 -1.70 0.60 -2.75 0.45 -1.55 0.80 -1.95 1.75 -1.95 0.70 0 1.15 0.20 1.05 0.40 -0.05 0.25 -1.25 3.50 -2.65 7.25 -1.55 4.30 -2.75 6.85 -3.20 6.85 -0.50 0 -0.60 -0.55 -0.40 -2.30z"/>
  <path d="M429.25 541.65 c0.20 -0.50 0.50 -1.30 0.60 -1.75 0.50 -1.65 1.65 -1 1.65 0.85 0 1.55 -0.15 1.75 -1.30 1.75 -1.05 0 -1.25 -0.15 -0.95 -0.85z"/>
  <path d="M431.50 535.45 c0 -0.30 0.40 -1.65 0.85 -3 1.05 -2.90 2.15 -3.25 2.15 -0.70 0 0.95 -0.20 1.75 -0.50 1.75 -0.25 0 -0.50 0.55 -0.50 1.25 0 0.90 -0.25 1.25 -1 1.25 -0.55 0 -1 -0.25 -1 -0.55z"/>
  <path d="M525.50 535.40 c0.05 -1 2.90 -7.60 3.40 -7.80 0.85 -0.25 0.75 2.05 -0.25 5.25 -0.70 2.20 -1.05 2.65 -2 2.65 -0.65 0 -1.15 -0.05 -1.15 -0.10z"/>
  <path d="M495.80 530.90 c-0.15 -0.65 -0.30 -1.80 -0.30 -2.55 0 -2.10 1.10 -1.40 2.10 1.30 l0.90 2.35 -1.20 0 c-0.80 0 -1.30 -0.35 -1.50 -1.10z"/>
  <path d="M690.50 524.75 c0 -0.95 0.25 -1.75 0.50 -1.75 0.30 0 0.50 -0.35 0.50 -0.80 0 -0.45 0.75 -2.85 1.65 -5.25 1.35 -3.80 1.75 -4.45 2.70 -4.45 1.20 0 1.10 0.35 -3.15 11.65 -1.10 2.80 -2.20 3.10 -2.20 0.60z"/>
  <path d="M434.75 525.15 c0.20 -0.50 0.50 -1.30 0.60 -1.75 0.50 -1.65 1.65 -1 1.65 0.85 0 1.55 -0.15 1.75 -1.30 1.75 -1.05 0 -1.25 -0.15 -0.95 -0.85z"/>
  <path d="M529.65 523.90 c0.95 -2.30 1.85 -2.40 1.85 -0.20 0 1.60 -0.15 1.80 -1.25 1.80 -1.20 0 -1.25 -0.05 -0.60 -1.60z"/>
  <path d="M588.50 523.75 c0 -1.10 0.25 -1.75 0.65 -1.75 0.40 0 0.90 0.80 1.20 1.75 0.55 1.65 0.50 1.75 -0.65 1.75 -1.05 0 -1.20 -0.25 -1.20 -1.75z"/>
  <path d="M493.30 523.90 c-0.95 -3.65 0.55 -5.45 1.65 -2 0.35 1 0.75 2.15 0.85 2.50 0.20 0.40 -0.15 0.60 -0.95 0.60 -0.85 0 -1.35 -0.35 -1.55 -1.10z"/>
  <path d="M586.50 517.75 c0 -1.10 0.25 -1.75 0.65 -1.75 0.40 0 0.90 0.80 1.20 1.75 0.55 1.65 0.50 1.75 -0.65 1.75 -1.05 0 -1.20 -0.25 -1.20 -1.75z"/>
  <path d="M532.40 516.65 c1 -2.70 2.10 -3.40 2.10 -1.30 0 2.60 -0.55 3.65 -1.80 3.65 l-1.20 0 0.90 -2.35z"/>
  <path d="M490.80 516.90 c-0.15 -0.65 -0.30 -1.75 -0.30 -2.50 0 -2.30 1.25 -1.60 2.10 1.10 l0.80 2.50 -1.15 0 c-0.75 0 -1.25 -0.35 -1.45 -1.10z"/>
  <path d="M534.15 511.75 c0.30 -0.95 0.80 -1.75 1.20 -1.75 0.40 0 0.65 0.65 0.65 1.75 0 1.50 -0.15 1.75 -1.20 1.75 -1.15 0 -1.20 -0.10 -0.65 -1.75z"/>
  <path d="M584.10 511.05 c-1.55 -5.05 0.15 -6.30 1.75 -1.30 l1.05 3.25 -1.10 0 c-0.90 0 -1.25 -0.45 -1.70 -1.95z"/>
  <path d="M439.65 510.75 c0.30 -0.95 0.80 -1.75 1.20 -1.75 0.40 0 0.65 0.65 0.65 1.75 0 1.50 -0.15 1.75 -1.20 1.75 -1.15 0 -1.20 -0.10 -0.65 -1.75z"/>
  <path d="M488.60 510.55 c-0.35 -1.05 -0.60 -2.30 -0.60 -2.75 0 -0.45 -0.20 -0.80 -0.50 -0.80 -0.25 0 -0.50 -0.80 -0.50 -1.80 0 -2.85 1.05 -1.80 2.85 2.80 0.90 2.30 1.65 4.25 1.65 4.35 0 0.10 -0.55 0.15 -1.15 0.15 -0.95 0 -1.30 -0.40 -1.75 -1.95z"/>
  <path d="M696 510.30 c0 -1 0.25 -1.80 0.50 -1.80 0.30 0 0.50 -0.60 0.50 -1.35 0 -1.90 0.65 -2.75 1.85 -2.55 1 0.15 1 0.20 -0.30 3.60 -1.50 4 -2.55 4.80 -2.55 2.10z"/>
  <path d="M536.15 506.25 c0.30 -0.95 0.80 -1.75 1.20 -1.75 0.40 0 0.65 0.65 0.65 1.75 0 1.50 -0.15 1.75 -1.20 1.75 -1.15 0 -1.20 -0.10 -0.65 -1.75z"/>
  <path d="M582 504.55 c0 -0.80 -0.25 -1.55 -0.55 -1.65 -0.25 -0.10 -0.65 -1.10 -0.80 -2.30 -0.15 -1.15 -0.50 -2.10 -0.70 -2.10 -0.25 0 -0.45 -0.30 -0.45 -0.65 0 -0.35 -1.10 -4.15 -2.50 -8.45 -1.35 -4.30 -2.50 -8.25 -2.50 -8.85 0 -0.60 -0.20 -1.05 -0.50 -1.05 -0.25 0 -0.50 -0.80 -0.50 -1.75 0 -0.95 -0.20 -1.75 -0.40 -1.75 -0.55 0 -2.60 -6.45 -2.60 -8.15 0 -0.80 0.30 -1.35 0.65 -1.35 0.40 0 2.35 5.25 5.30 14.65 2.55 8 5.40 16.90 6.30 19.75 l1.70 5.10 -1.25 0 c-1 0 -1.20 -0.25 -1.20 -1.45z"/>
  <path d="M537.65 502.25 c0.30 -0.95 0.80 -1.75 1.20 -1.75 0.40 0 0.65 0.65 0.65 1.75 0 1.50 -0.15 1.75 -1.20 1.75 -1.15 0 -1.20 -0.10 -0.65 -1.75z"/>
  <path d="M699 502.30 c0 -1.60 0.15 -1.80 1.25 -1.80 1.20 0 1.25 0.05 0.60 1.60 -0.95 2.30 -1.85 2.40 -1.85 0.20z"/>
  <path d="M485.50 501.25 c0 -1.10 0.25 -1.75 0.65 -1.75 0.40 0 0.90 0.80 1.20 1.75 0.55 1.65 0.50 1.75 -0.65 1.75 -1.05 0 -1.20 -0.25 -1.20 -1.75z"/>
  <path d="M700.50 498.70 c0 -1.65 1.05 -5.20 1.50 -5.20 0.20 0 0.50 -0.90 0.70 -2 0.15 -1.10 0.50 -2 0.75 -2 0.25 0 0.55 -0.90 0.75 -2 0.15 -1.10 0.55 -2 0.80 -2 0.30 0 0.50 -0.55 0.50 -1.25 0 -1 0.25 -1.25 1.25 -1.25 l1.20 0 -1.25 3.40 c-0.75 1.85 -2.10 5.60 -3.15 8.30 -1.80 5 -3.05 6.60 -3.05 4z"/>
  <path d="M443.75 498.65 c0.20 -0.50 0.50 -1.30 0.60 -1.75 0.50 -1.65 1.65 -1 1.65 0.85 0 1.55 -0.15 1.75 -1.30 1.75 -1.05 0 -1.25 -0.15 -0.95 -0.85z"/>
  <path d="M483.60 497.05 c-0.35 -1.05 -0.60 -2.30 -0.60 -2.75 0 -0.45 -0.20 -0.80 -0.40 -0.80 -0.55 0 -2.10 -4.95 -2.10 -6.65 0 -1.35 0.65 -1.80 1.25 -0.90 0.15 0.30 1.25 3.30 2.50 6.75 2.20 6.30 2.20 6.30 1.05 6.30 -0.90 0 -1.25 -0.40 -1.70 -1.95z"/>
  <path d="M539.65 496.75 c0.30 -0.95 0.80 -1.75 1.20 -1.75 0.40 0 0.65 0.65 0.65 1.75 0 1.50 -0.15 1.75 -1.20 1.75 -1.15 0 -1.20 -0.10 -0.65 -1.75z"/>
  <path d="M544.05 484.90 c2.25 -6.25 2.30 -6.40 3.05 -6.40 0.70 0 0.20 4.65 -0.55 4.90 -0.30 0.10 -0.55 0.85 -0.55 1.65 0 0.80 -0.20 1.45 -0.45 1.45 -0.25 0 -0.55 0.90 -0.75 2 -0.25 1.70 -0.50 2 -1.55 2 l-1.20 0 2 -5.60z"/>
  <path d="M449.40 481 c2.20 -6.65 3.60 -8.85 3.60 -5.65 0 1.70 -1.55 6.65 -2.10 6.65 -0.20 0 -0.40 0.70 -0.40 1.50 0 0.85 -0.20 1.50 -0.50 1.50 -0.25 0 -0.50 0.70 -0.50 1.50 0 1.25 -0.20 1.50 -1.20 1.50 l-1.20 0 2.30 -7z"/>
  <path d="M479 483.50 c0 -0.80 -0.20 -1.50 -0.50 -1.50 -0.25 0 -0.50 -0.55 -0.50 -1.25 0 -0.70 -0.20 -1.25 -0.40 -1.25 -0.55 0 -2.10 -4.95 -2.10 -6.65 0 -3.05 1.40 -1 3.60 5.40 l2.35 6.75 -1.25 0 c-1 0 -1.20 -0.25 -1.20 -1.50z"/>
  <path d="M512.05 482.85 c-0.30 -0.80 -0.55 -1.55 -0.55 -1.70 0 -0.15 -1.70 -4.90 -3.80 -10.60 -5.85 -15.80 -5.35 -14.05 -3.95 -14.05 1 0 1.25 0.30 1.55 1.90 0.20 1 0.55 2 0.75 2.15 0.25 0.15 0.75 1.45 1.05 2.85 0.35 1.45 0.80 2.60 1 2.60 0.20 0 0.50 0.85 0.70 1.90 0.20 1 0.50 1.95 0.75 2.10 0.20 0.15 0.70 1.40 1.05 2.75 0.35 1.40 0.80 2.65 1.05 2.80 0.20 0.15 0.55 1.15 0.70 2.25 0.15 1.05 0.60 2.20 0.95 2.45 0.45 0.40 0.45 0.85 -0.05 2.25 l-0.65 1.75 -0.55 -1.40z"/>
  <path d="M707 480.75 c0 -0.95 0.20 -1.75 0.45 -1.75 0.25 0 0.55 -0.90 0.75 -2 0.15 -1.10 0.50 -2 0.75 -2 0.25 0 0.55 -0.90 0.75 -2 0.25 -1.70 0.50 -2 1.55 -2 l1.20 0 -1.50 4.15 c-0.85 2.25 -1.80 4.85 -2.10 5.75 -0.70 2.20 -1.85 2.10 -1.85 -0.15z"/>
  <path d="M513 478.20 c0 -2.10 1.10 -5.20 1.85 -5.20 0.40 0 0.65 -0.60 0.65 -1.75 0 -0.95 0.25 -1.75 0.50 -1.75 0.30 0 0.50 -0.50 0.50 -1.10 0 -0.65 0.40 -2.20 0.85 -3.50 0.70 -1.90 1.10 -2.40 2 -2.40 l1.15 0 -1.20 3.15 c-0.65 1.70 -1.30 3.45 -1.45 3.85 -0.15 0.40 -0.45 1.20 -0.65 1.75 -0.20 0.55 -0.95 2.55 -1.65 4.45 -1.40 3.70 -2.55 4.85 -2.55 2.50z"/>
  <path d="M548.90 471.15 c1.60 -4.60 2.90 -5.55 2.45 -1.85 -0.15 1.35 -0.50 2.50 -0.80 2.60 -0.30 0.10 -0.55 0.85 -0.55 1.65 0 1.20 -0.20 1.45 -1.25 1.45 l-1.20 0 1.35 -3.85z"/>
  <path d="M452.50 472.40 c0 -1.50 0.65 -2.90 1.30 -2.90 0.45 0 0.70 0.60 0.70 1.75 0 1.40 -0.20 1.75 -1 1.75 -0.55 0 -1 -0.30 -1 -0.60z"/>
  <path d="M472.15 464.85 c-2.20 -6.30 -2.65 -8.85 -1.50 -8.85 0.35 0 1.70 3.15 3.20 7.50 2.55 7.30 2.60 7.50 1.50 7.50 -0.95 0 -1.35 -0.80 -3.20 -6.15z"/>
  <path d="M711.65 468.20 c0.10 -1.30 0.45 -2.45 0.70 -2.65 0.30 -0.15 0.65 -1.15 0.85 -2.15 0.20 -1.05 0.55 -1.90 0.75 -1.90 0.25 0 0.55 -0.90 0.75 -2 0.15 -1.10 0.55 -2 0.80 -2 0.30 0 0.50 -0.55 0.50 -1.25 0 -1 0.25 -1.25 1.25 -1.25 l1.20 0 -1.20 3.15 c-0.65 1.70 -1.95 5.20 -2.85 7.70 -1.85 5.20 -3.20 6.35 -2.75 2.35z"/>
  <path d="M454.50 465.90 c0 -1.50 2.25 -7.40 2.85 -7.40 0.90 0 0.80 2.10 -0.20 5.35 -0.60 1.90 -1.10 2.65 -1.75 2.65 -0.50 0 -0.90 -0.25 -0.90 -0.60z"/>
  <path d="M550.60 466.10 c0.10 -0.25 1.75 -4.70 3.65 -10 2.25 -6.10 3.75 -9.60 4.20 -9.60 0.50 0 0.60 0.55 0.40 2.35 -0.15 1.30 -0.50 2.45 -0.80 2.55 -0.30 0.10 -0.55 0.55 -0.55 0.95 0 1.30 -1.65 6.15 -2.10 6.15 -0.20 0 -0.40 0.40 -0.40 0.90 0 0.45 -0.50 2.25 -1.10 4 -0.95 2.60 -1.35 3.10 -2.30 3.10 -0.65 0 -1.10 -0.20 -1 -0.40z"/>
  <path d="M568.60 463.05 c-0.35 -1.05 -0.60 -2.40 -0.60 -3 0 -0.55 -0.20 -1.05 -0.40 -1.05 -0.55 0 -1.60 -3.45 -1.60 -5.20 0 -0.70 -0.20 -1.30 -0.50 -1.30 -0.25 0 -0.50 -0.80 -0.50 -1.80 0 -3.40 1.25 -1.45 3.60 5.85 1.30 3.95 2.40 7.50 2.40 7.85 0 0.30 -0.40 0.60 -0.90 0.60 -0.65 0 -1.10 -0.60 -1.50 -1.95z"/>
  <path d="M520 458.75 c0 -1.50 0.15 -1.75 1.20 -1.75 1.15 0 1.20 0.10 0.65 1.75 -0.30 0.95 -0.80 1.75 -1.20 1.75 -0.40 0 -0.65 -0.65 -0.65 -1.75z"/>
  <path d="M459.45 450.25 c1.35 -4.25 2.55 -7.25 2.95 -7.25 0.30 0 0.60 0.55 0.60 1.25 0 1.70 -1.10 5.75 -1.60 5.75 -0.20 0 -0.40 0.50 -0.40 1.10 0 0.60 -0.40 2.25 -0.85 3.75 -0.65 2.15 -1.05 2.65 -1.90 2.65 -1.10 0 -1.05 -0.15 1.20 -7.25z"/>
  <path d="M625.65 456.40 c0.85 -2.05 4.10 -10.55 4.95 -12.90 1.75 -4.80 2.15 -5.50 2.75 -5.50 0.90 0 0.80 3.25 -0.10 4.20 -0.40 0.40 -0.75 1.20 -0.75 1.75 0 0.60 -0.20 1.05 -0.45 1.05 -0.20 0 -0.55 0.95 -0.70 2.10 -0.15 1.20 -0.55 2.20 -0.80 2.30 -0.30 0.10 -0.55 0.75 -0.55 1.40 0 0.65 -0.20 1.20 -0.50 1.20 -0.25 0 -0.50 0.55 -0.50 1.25 0 0.70 -0.20 1.25 -0.50 1.25 -0.25 0 -0.50 0.55 -0.50 1.25 0 1 -0.25 1.25 -1.30 1.25 -0.85 0 -1.20 -0.20 -1.05 -0.60z"/>
  <path d="M521.50 455.20 c0 -0.70 0.25 -2.20 0.60 -3.25 0.45 -1.55 0.80 -1.95 1.70 -1.95 l1.15 0 -1.10 3.10 c-1.20 3.35 -2.35 4.40 -2.35 2.10z"/>
  <path d="M501.40 453.65 c-0.40 -1.35 -1.70 -4.95 -2.80 -8 l-2.05 -5.65 1.25 0 c0.95 0 1.20 0.25 1.20 1.25 0 0.70 0.25 1.25 0.50 1.25 0.30 0 0.50 0.65 0.50 1.45 0 0.80 0.20 1.55 0.40 1.65 0.65 0.25 3.10 7.30 3.10 8.95 0 2.25 -1.20 1.75 -2.10 -0.90z"/>
  <path d="M468.10 453.55 c-0.35 -1.05 -0.60 -2.25 -0.60 -2.70 0 -0.40 -0.20 -0.85 -0.40 -0.95 -0.25 -0.05 -1 -1.85 -1.70 -3.90 -0.95 -2.90 -1.45 -3.80 -2.25 -3.90 -1 -0.15 -1 -0.20 -0.25 -2.65 0.45 -1.35 1 -2.40 1.25 -2.30 0.25 0.05 1.75 3.85 3.35 8.35 1.60 4.55 3.05 8.65 3.25 9.15 0.30 0.65 0.10 0.85 -0.85 0.85 -1 0 -1.35 -0.35 -1.80 -1.95z"/>
  <path d="M718 451.25 c0 -1.50 0.15 -1.75 1.20 -1.75 1.15 0 1.20 0.10 0.65 1.75 -0.30 0.95 -0.80 1.75 -1.20 1.75 -0.40 0 -0.65 -0.65 -0.65 -1.75z"/>
  <path d="M524 447.75 c0 -1.50 0.15 -1.75 1.20 -1.75 1.15 0 1.20 0.10 0.65 1.75 -0.30 0.95 -0.80 1.75 -1.20 1.75 -0.40 0 -0.65 -0.65 -0.65 -1.75z"/>
  <path d="M719.50 447.25 c0 -0.95 0.25 -1.75 0.50 -1.75 0.30 0 0.50 -0.55 0.50 -1.25 0 -1 0.25 -1.25 1.25 -1.25 l1.25 0 -1.05 2.60 c-1.25 3.15 -1.40 3.40 -2 3.40 -0.25 0 -0.45 -0.80 -0.45 -1.75z"/>
  <path d="M563.10 446.05 c-0.35 -1.05 -0.60 -2.50 -0.60 -3.25 0 -0.70 -0.20 -1.30 -0.50 -1.30 -0.25 0 -0.50 -0.80 -0.50 -1.75 0 -3.25 1.20 -1.85 2.80 3.25 l1.55 5 -1.10 0 c-0.85 0 -1.25 -0.45 -1.65 -1.95z"/>
  <path d="M525.65 443.20 c0.10 -1.30 0.45 -2.45 0.70 -2.65 0.20 -0.15 0.70 -1.40 1.05 -2.80 0.35 -1.35 0.85 -2.55 1.15 -2.65 0.25 -0.10 0.45 -0.55 0.45 -0.95 0 -1.20 1.65 -6.15 2.05 -6.15 0.15 0 0.45 -0.90 0.65 -2 0.25 -1.70 0.50 -2 1.55 -2 l1.20 0 -2.05 5.65 c-1.10 3.05 -2.80 7.90 -3.80 10.75 -1.15 3.20 -2.10 5.10 -2.50 5.10 -0.55 0 -0.65 -0.55 -0.45 -2.30z"/>
  <path d="M722.15 440.15 c0.15 -1.30 0.50 -2.45 0.80 -2.55 0.30 -0.10 0.55 -0.75 0.55 -1.40 0 -0.95 0.25 -1.20 1.25 -1.20 l1.20 0 -1.35 3.75 c-1.60 4.40 -2.90 5.15 -2.45 1.40z"/>
  <path d="M493.65 432 c-2.55 -7.40 -2.60 -7.50 -1.45 -7.50 0.90 0 1.25 0.40 1.70 1.95 0.35 1.05 0.60 2.30 0.60 2.75 0 0.45 0.20 0.80 0.40 0.80 0.55 0 2.60 6.45 2.60 8.15 0 3.15 -1.40 0.90 -3.85 -6.15z"/>
  <path d="M561.20 436.70 c0.15 -0.45 0.30 -0.90 0.30 -1 0 -0.15 0.25 -0.10 0.50 0.05 0.80 0.50 0.60 1.75 -0.30 1.75 -0.55 0 -0.70 -0.25 -0.50 -0.80z"/>
  <path d="M633.75 435.65 c0.20 -0.50 0.50 -1.30 0.60 -1.75 0.50 -1.65 1.65 -1 1.65 0.85 0 1.55 -0.15 1.75 -1.30 1.75 -1.05 0 -1.25 -0.15 -0.95 -0.85z"/>
  <path d="M725 433.15 c0 -2.55 0.55 -3.65 1.75 -3.65 l1.15 0 -0.80 2.50 c-0.85 2.70 -2.10 3.40 -2.10 1.15z"/>
  <path d="M386.20 426 c-0.20 -1.10 -0.50 -2 -0.75 -2 -0.25 0 -0.45 -0.55 -0.45 -1.25 0 -0.70 -0.20 -1.25 -0.50 -1.25 -0.25 0 -0.50 -0.55 -0.50 -1.25 0 -0.70 -0.20 -1.25 -0.50 -1.25 -0.25 0 -0.50 -0.80 -0.50 -1.75 0 -3.80 1.35 -1.80 4.45 6.65 l1.50 4.10 -1.20 0 c-1.05 0 -1.30 -0.30 -1.55 -2z"/>
  <path d="M727.50 425.75 c0 -1.50 0.15 -1.75 1.20 -1.75 1.15 0 1.20 0.10 0.65 1.75 -0.30 0.95 -0.80 1.75 -1.20 1.75 -0.40 0 -0.65 -0.65 -0.65 -1.75z"/>
  <path d="M488.30 417.40 c-4.75 -12.80 -10.55 -27.40 -11.80 -29.55 -0.40 -0.65 -0.20 -2.05 0.80 -5.35 1.45 -4.75 2.70 -6.05 2.70 -2.75 0 0.95 -0.20 1.75 -0.50 1.75 -0.25 0 -0.50 0.70 -0.50 1.50 0 0.85 -0.20 1.50 -0.50 1.50 -0.25 0 -0.50 0.70 -0.50 1.50 0 0.85 0.25 1.50 0.50 1.50 0.30 0 0.50 0.80 0.50 1.75 0 1.20 0.25 1.75 0.75 1.75 0.45 0 0.75 0.45 0.75 1.05 0 0.55 0.35 1.35 0.75 1.75 0.40 0.45 0.75 1.30 0.75 2 0 0.65 0.25 1.20 0.50 1.20 0.30 0 0.50 0.55 0.50 1.25 0 0.70 0.20 1.25 0.45 1.25 0.55 0 3.55 7.95 3.55 9.40 0 0.60 0.25 1.10 0.50 1.10 0.30 0 0.50 0.55 0.50 1.25 0 0.70 0.20 1.25 0.40 1.25 0.50 0 2.60 5.85 2.60 7.15 0 0.45 0.25 0.85 0.50 0.85 0.30 0 0.50 0.80 0.50 1.75 0 3.40 -1.25 1.75 -3.70 -4.85z"/>
  <path d="M533.50 422.15 c0 -1.65 1.50 -6.15 2.10 -6.15 0.20 0 0.40 -0.40 0.40 -0.85 0 -1.30 1.60 -5.65 2.10 -5.65 0.20 0 0.40 -0.55 0.40 -1.25 0 -0.70 0.25 -1.25 0.50 -1.25 0.30 0 0.50 -0.40 0.50 -0.85 0 -1.30 1.60 -5.65 2.10 -5.65 0.20 0 0.40 -0.55 0.40 -1.25 0 -0.70 0.25 -1.25 0.50 -1.25 0.30 0 0.50 -0.55 0.50 -1.25 0 -0.70 0.25 -1.25 0.50 -1.25 0.30 0 0.50 -0.55 0.50 -1.25 0 -0.70 0.25 -1.25 0.50 -1.25 0.30 0 0.50 -0.55 0.50 -1.20 0 -0.70 0.35 -1.55 0.75 -2 0.40 -0.40 0.75 -1.20 0.75 -1.75 0 -0.80 0.30 -1.05 1.25 -1.05 l1.25 0 -1.10 2.65 c-0.60 1.40 -3.80 9.55 -7.10 18.05 -3.35 8.50 -6.35 15.55 -6.65 15.70 -0.45 0.10 -0.65 -0.30 -0.65 -1.25z"/>
  <path d="M729 421.75 c0 -1.50 0.15 -1.75 1.20 -1.75 1.15 0 1.20 0.10 0.65 1.75 -0.30 0.95 -0.80 1.75 -1.20 1.75 -0.40 0 -0.65 -0.65 -0.65 -1.75z"/>
  <path d="M730.50 418.15 c0 -0.80 0.40 -2.45 0.85 -3.75 0.70 -1.95 1.05 -2.40 2.05 -2.40 0.65 0 1.10 0.15 1 0.40 -0.05 0.20 -0.70 1.90 -1.40 3.75 -1.30 3.45 -2.50 4.40 -2.50 2z"/>
  <path d="M381.50 413.75 c0 -0.70 -0.20 -1.25 -0.50 -1.25 -0.25 0 -0.50 -0.55 -0.50 -1.25 0 -0.70 -0.20 -1.25 -0.50 -1.25 -0.25 0 -0.50 -0.55 -0.50 -1.20 0 -0.65 -0.25 -1.30 -0.55 -1.40 -0.30 -0.10 -0.65 -1.25 -0.80 -2.55 -0.40 -3.40 0.85 -3.10 2.15 0.55 0.55 1.55 1.65 4.35 2.35 6.25 l1.30 3.35 -1.20 0 c-1 0 -1.25 -0.25 -1.25 -1.25z"/>
  <path d="M642.75 411.65 c0.20 -0.50 0.50 -1.30 0.60 -1.75 0.50 -1.65 1.65 -1 1.65 0.85 0 1.55 -0.15 1.75 -1.30 1.75 -1.05 0 -1.25 -0.15 -0.95 -0.85z"/>
  <path d="M733.50 410.15 c0 -2.55 0.55 -3.65 1.75 -3.65 l1.15 0 -0.80 2.50 c-0.85 2.70 -2.10 3.40 -2.10 1.15z"/>
  <path d="M735.50 404.25 c0 -1.50 0.15 -1.75 1.20 -1.75 1.15 0 1.20 0.10 0.65 1.75 -0.30 0.95 -0.80 1.75 -1.20 1.75 -0.40 0 -0.65 -0.65 -0.65 -1.75z"/>
  <path d="M376.30 400.90 c-0.15 -0.65 -0.30 -1.80 -0.30 -2.55 0 -2.10 1.10 -1.40 2.10 1.30 l0.90 2.35 -1.20 0 c-0.80 0 -1.30 -0.35 -1.50 -1.10z"/>
  <path d="M737 400.60 c0 -0.80 0.35 -2.45 0.80 -3.75 0.65 -1.90 1 -2.35 1.95 -2.35 l1.20 0 -1.25 3.35 c-0.70 1.85 -1.40 3.55 -1.50 3.75 -0.55 0.85 -1.20 0.30 -1.20 -1z"/>
  <path d="M374.50 395.25 c0 -0.70 -0.20 -1.25 -0.40 -1.25 -0.45 0 -1.60 -2.95 -1.60 -4.20 0 -0.50 -0.35 -1.20 -0.75 -1.60 -0.40 -0.45 -0.75 -1.35 -0.75 -2 0 -0.70 -0.35 -1.60 -0.75 -2 -0.80 -0.85 -1.05 -4.20 -0.25 -4.20 0.65 0 1.20 1.10 3.70 7.80 1.20 3.30 2.45 6.55 2.75 7.35 0.50 1.25 0.45 1.35 -0.70 1.35 -1 0 -1.25 -0.25 -1.25 -1.25z"/>
  <path d="M650.15 391.50 c1.25 -3.35 2.35 -3.95 2.35 -1.25 0 0.95 -0.20 1.75 -0.50 1.75 -0.25 0 -0.50 0.55 -0.50 1.25 0 1 -0.25 1.25 -1.20 1.25 l-1.25 0 1.10 -3z"/>
  <path d="M741 389.80 c0 -1 0.25 -1.80 0.50 -1.80 0.30 0 0.50 -0.55 0.50 -1.25 0 -0.70 0.25 -1.25 0.50 -1.25 0.30 0 0.50 -0.65 0.50 -1.50 0 -0.80 0.25 -1.50 0.50 -1.50 0.30 0 0.50 -0.55 0.50 -1.25 0 -1 0.25 -1.25 1.25 -1.25 0.70 0 1.25 0.05 1.25 0.15 0 0.05 -0.95 2.55 -2.15 5.55 -2.25 5.80 -3.35 7.15 -3.35 4.10z"/>
  <path d="M546 382.25 c0 -1.10 0.25 -1.75 0.65 -1.75 0.40 0 0.90 0.80 1.20 1.75 0.55 1.65 0.50 1.75 -0.65 1.75 -1.05 0 -1.20 -0.25 -1.20 -1.75z"/>
  <path d="M653.75 382.15 c0.20 -0.50 0.50 -1.30 0.60 -1.75 0.50 -1.65 1.65 -1 1.65 0.85 0 1.55 -0.15 1.75 -1.30 1.75 -1.05 0 -1.25 -0.15 -0.95 -0.85z"/>
  <path d="M745.65 377.15 c0.15 -1.30 0.50 -2.45 0.80 -2.55 0.30 -0.10 0.55 -0.75 0.55 -1.40 0 -0.95 0.25 -1.20 1.25 -1.20 l1.25 0 -1.25 3.30 c-1.45 3.85 -1.65 4.20 -2.35 4.20 -0.35 0 -0.45 -0.85 -0.25 -2.35z"/>
  <path d="M276.05 372.35 c-1.20 -3.35 -5.10 -13.40 -8.70 -22.35 -3.55 -8.95 -8.45 -21.65 -10.95 -28.25 -4.05 -10.85 -8.30 -22.10 -9.15 -24.35 -0.30 -0.70 -0.10 -0.90 0.85 -0.90 0.95 0 1.35 0.50 2.30 3.15 0.60 1.70 1.10 3.50 1.10 4 0 0.45 0.20 0.85 0.50 0.85 0.25 0 0.60 0.85 0.80 1.90 0.20 1 0.50 1.95 0.75 2.10 0.20 0.15 0.70 1.40 1.05 2.75 0.35 1.40 0.75 2.60 0.95 2.75 0.50 0.45 3.95 9.95 3.95 11 0 0.55 0.25 1 0.50 1 0.30 0 0.50 0.55 0.50 1.25 0 0.70 0.20 1.25 0.40 1.25 0.50 0 2.10 4.35 2.10 5.65 0 0.45 0.25 0.85 0.50 0.85 0.30 0 0.50 0.55 0.50 1.20 0 0.65 0.20 1.30 0.40 1.40 0.60 0.20 5.10 11.70 5.10 12.90 0 0.55 0.20 1 0.45 1 0.50 0 2.55 5.20 2.55 6.55 0 0.50 0.25 0.95 0.50 0.95 0.30 0 0.50 0.55 0.50 1.20 0 0.65 0.20 1.30 0.45 1.40 0.65 0.25 5.55 13.85 5.55 15.45 0 3.05 -1.35 1.25 -3.45 -4.70z"/>
  <path d="M543.80 377.40 c-0.15 -0.65 -0.30 -1.65 -0.30 -2.25 0 -0.60 -0.25 -1.15 -0.55 -1.25 -0.30 -0.10 -0.65 -1.25 -0.80 -2.60 -0.45 -3.95 0.85 -2.65 2.70 2.60 l1.60 4.60 -1.15 0 c-0.80 0 -1.30 -0.35 -1.50 -1.10z"/>
  <path d="M656.85 373.75 c1.45 -4.05 2.65 -4.95 2.65 -2 0 0.95 -0.20 1.75 -0.45 1.75 -0.25 0 -0.55 0.90 -0.75 2 -0.25 1.70 -0.50 2 -1.55 2 l-1.20 0 1.30 -3.75z"/>
  <path d="M479.90 374.65 c1 -2.70 2.10 -3.40 2.10 -1.30 0 2.60 -0.55 3.65 -1.80 3.65 l-1.20 0 0.90 -2.35z"/>
  <path d="M366.20 373.65 c-0.20 -1.05 -0.50 -2 -0.65 -2.15 -0.65 -0.50 -2.55 -6.10 -2.55 -7.55 0 -2 1.20 -1.85 1.85 0.20 0.30 0.85 1.35 3.80 2.30 6.50 l1.80 4.85 -1.20 0 c-1 0 -1.25 -0.30 -1.55 -1.85z"/>
  <path d="M481.65 369.75 c0.30 -0.95 0.80 -1.75 1.20 -1.75 0.40 0 0.65 0.65 0.65 1.75 0 1.50 -0.15 1.75 -1.20 1.75 -1.15 0 -1.20 -0.10 -0.65 -1.75z"/>
  <path d="M748.50 370.15 c0 -1.65 1.55 -6.15 2.10 -6.15 0.20 0 0.40 -0.35 0.40 -0.80 0 -1.70 1.20 -4.70 1.85 -4.70 0.40 0 0.65 -0.60 0.65 -1.75 0 -0.95 0.25 -1.75 0.50 -1.75 0.30 0 0.50 -0.55 0.50 -1.25 0 -0.70 0.25 -1.25 0.50 -1.25 0.30 0 0.50 -0.55 0.50 -1.25 0 -1 0.25 -1.25 1.25 -1.25 l1.20 0 -1.30 3.40 c-0.70 1.85 -2.55 6.65 -4.10 10.70 -2.65 7 -4.05 9.10 -4.05 6.05z"/>
  <path d="M658.75 368.65 c0.20 -0.50 0.50 -1.30 0.60 -1.75 0.50 -1.65 1.65 -1 1.65 0.85 0 1.55 -0.15 1.75 -1.30 1.75 -1.05 0 -1.25 -0.15 -0.95 -0.85z"/>
  <path d="M540.50 366.25 c0 -1.95 0.70 -2.30 1.50 -0.80 0.80 1.55 0.60 2.55 -0.50 2.55 -0.80 0 -1 -0.35 -1 -1.75z"/>
  <path d="M483.90 363.50 c0.85 -2.70 2.10 -3.40 2.10 -1.10 0 2.50 -0.55 3.60 -1.75 3.60 l-1.15 0 0.80 -2.50z"/>
  <path d="M538.30 361.40 c-0.15 -0.65 -0.30 -1.75 -0.30 -2.50 0 -2.30 1.25 -1.60 2.10 1.10 l0.80 2.50 -1.15 0 c-0.75 0 -1.25 -0.35 -1.45 -1.10z"/>
  <path d="M662.15 359.75 c0.30 -0.95 0.80 -1.75 1.20 -1.75 0.40 0 0.65 0.65 0.65 1.75 0 1.50 -0.15 1.75 -1.20 1.75 -1.15 0 -1.20 -0.10 -0.65 -1.75z"/>
  <path d="M360.20 357.50 c-0.20 -1.10 -0.50 -2 -0.70 -2 -0.45 0 -1.50 -3.55 -1.50 -5.20 0 -1.25 0.65 -1.75 1.20 -0.90 0.15 0.25 1.05 2.60 2 5.25 l1.75 4.85 -1.20 0 c-1.05 0 -1.30 -0.30 -1.55 -2z"/>
  <path d="M663.65 355.75 c0.30 -0.95 0.80 -1.75 1.20 -1.75 0.40 0 0.65 0.65 0.65 1.75 0 1.50 -0.15 1.75 -1.20 1.75 -1.15 0 -1.20 -0.10 -0.65 -1.75z"/>
  <path d="M536.20 355.15 c-0.20 -1.05 -0.50 -2 -0.75 -2.15 -0.20 -0.15 -0.70 -1.40 -1.05 -2.75 -0.35 -1.40 -0.85 -2.65 -1.05 -2.80 -0.25 -0.20 -0.60 -1.35 -0.70 -2.65 -0.40 -3.20 0.90 -3.15 1.95 0.10 0.40 1.30 1.60 4.55 2.55 7.25 l1.80 4.85 -1.20 0 c-1 0 -1.25 -0.30 -1.55 -1.85z"/>
  <path d="M488.30 351.15 c0.70 -1.90 1.40 -3.80 1.55 -4.25 0.50 -1.65 1.65 -1 1.65 0.85 0 1.20 -0.25 1.75 -0.75 1.75 -0.50 0 -0.75 0.50 -0.75 1.40 0 2.55 -0.55 3.60 -1.80 3.60 l-1.20 0 1.30 -3.35z"/>
  <path d="M757 348.15 c0 -2.65 0.55 -3.65 1.85 -3.65 0.80 0 1.15 0.20 0.95 0.65 -0.10 0.30 -0.50 1.45 -0.85 2.50 -0.70 2.20 -1.95 2.50 -1.95 0.50z"/>
  <path d="M355.55 345.55 c-0.55 -1.60 -1.05 -3.35 -1.05 -3.95 0 -0.55 -0.20 -1.10 -0.50 -1.20 -0.25 -0.05 -0.75 -1.35 -1.10 -2.75 -0.35 -1.45 -0.80 -2.65 -1 -2.65 -0.25 0 -0.40 -0.80 -0.40 -1.75 0 -3.25 1.25 -1.90 3.10 3.40 1 2.80 2.35 6.60 3.10 8.50 l1.25 3.35 -1.15 0 c-0.95 0 -1.35 -0.50 -2.25 -2.95z"/>
  <path d="M490.50 345.30 c0 -0.10 0.45 -1.25 1 -2.50 1.10 -2.60 2 -3 2 -0.90 0 2.55 -0.55 3.60 -1.80 3.60 -0.65 0 -1.20 -0.10 -1.20 -0.20z"/>
  <path d="M759.50 340.75 c0 -0.95 0.25 -1.75 0.50 -1.75 0.30 0 0.50 -0.40 0.50 -0.85 0 -0.50 0.40 -1.95 0.85 -3.25 0.70 -1.90 1.10 -2.40 2 -2.40 l1.15 0 -1.20 3.15 c-2.05 5.40 -2.75 6.85 -3.25 6.85 -0.30 0 -0.55 -0.80 -0.55 -1.75z"/>
  <path d="M529.85 337.85 c-0.45 -1.50 -0.85 -3.15 -0.85 -3.75 0 -0.60 -0.20 -1.10 -0.50 -1.10 -0.25 0 -0.50 -0.55 -0.50 -1.25 0 -0.70 -0.20 -1.25 -0.50 -1.25 -0.25 0 -0.50 -0.65 -0.50 -1.50 0 -0.80 -0.20 -1.50 -0.40 -1.50 -0.50 0 -2.10 -4.90 -2.10 -6.40 0 -0.60 -0.20 -1.10 -0.40 -1.10 -0.55 0 -2.10 -4.95 -2.10 -6.65 0 -3.70 1.60 -0.35 6.10 12.90 4.60 13.65 4.75 14.25 3.70 14.25 -0.90 0 -1.25 -0.50 -1.95 -2.65z"/>
  <path d="M493.15 338.25 c0.30 -0.95 0.80 -1.75 1.20 -1.75 0.40 0 0.65 0.65 0.65 1.75 0 1.50 -0.15 1.75 -1.20 1.75 -1.15 0 -1.20 -0.10 -0.65 -1.75z"/>
  <path d="M496.40 328.75 c1.85 -5.40 3.10 -6.85 3.10 -3.50 0 0.95 -0.20 1.75 -0.45 1.75 -0.25 0 -0.60 1 -0.75 2.25 -0.20 1.25 -0.55 2.25 -0.85 2.25 -0.25 0 -0.45 0.55 -0.45 1.25 0 1 -0.25 1.25 -1.20 1.25 l-1.25 0 1.85 -5.25z"/>
  <path d="M763.50 330.25 c0 -0.95 0.20 -1.75 0.45 -1.75 0.25 0 0.55 -0.90 0.75 -2 0.25 -1.70 0.50 -2 1.55 -2 l1.20 0 -1.35 3.75 c-1.45 4 -2.60 4.90 -2.60 2z"/>
  <path d="M348.85 327.15 c-0.75 -2.15 -1.35 -4.25 -1.35 -4.75 0 -0.45 -0.25 -0.90 -0.50 -1 -0.30 -0.10 -0.65 -1.05 -0.85 -2.15 -0.15 -1.10 -0.60 -2.30 -0.95 -2.65 -0.35 -0.35 -0.80 -1.45 -1 -2.50 -0.20 -1 -0.55 -2 -0.85 -2.15 -0.25 -0.20 -0.60 -1.35 -0.70 -2.65 -0.20 -1.75 -0.10 -2.30 0.40 -2.30 0.65 0 1.75 2.80 7.65 19.15 1.80 4.85 1.80 4.85 0.65 4.85 -0.95 0 -1.35 -0.60 -2.50 -3.85z"/>
  <path d="M674.75 326.65 c0.20 -0.50 0.50 -1.30 0.60 -1.75 0.50 -1.65 1.65 -1 1.65 0.85 0 1.55 -0.15 1.75 -1.30 1.75 -1.05 0 -1.25 -0.15 -0.95 -0.85z"/>
  <path d="M766.50 322.25 c0 -0.95 0.25 -1.75 0.50 -1.75 0.30 0 0.50 -0.55 0.50 -1.25 0 -0.70 0.25 -1.25 0.50 -1.25 0.30 0 0.50 -0.40 0.50 -0.85 0 -1.25 1.55 -5.15 2.05 -5.15 0.25 0 0.45 -0.45 0.45 -0.95 0 -1.35 2.05 -6.55 2.55 -6.55 0.25 0 0.45 -0.55 0.45 -1.25 0 -0.70 0.25 -1.25 0.50 -1.25 0.30 0 0.50 -0.55 0.50 -1.25 0 -0.70 0.20 -1.25 0.45 -1.25 0.25 0 0.55 -0.60 0.65 -1.35 0.10 -1.05 0.45 -1.45 1.35 -1.55 0.95 -0.15 1.15 0 0.85 0.75 -2.90 8.05 -10.70 26.60 -11.15 26.65 -0.40 0 -0.65 -0.70 -0.65 -1.75z"/>
  <path d="M499.90 318.65 c2.15 -6.05 3.70 -5 1.75 1.20 -0.70 2.20 -1.05 2.65 -1.95 2.65 l-1.15 0 1.35 -3.85z"/>
  <path d="M502.65 310.75 c0.30 -0.95 0.80 -1.75 1.20 -1.75 0.40 0 0.65 0.65 0.65 1.75 0 1.50 -0.15 1.75 -1.20 1.75 -1.15 0 -1.20 -0.10 -0.65 -1.75z"/>
  <path d="M520.10 309.05 c-0.35 -1.05 -0.60 -2.55 -0.60 -3.25 0 -2.30 1.15 -1.25 2.35 2.10 l1.10 3.10 -1.15 0 c-0.90 0 -1.25 -0.40 -1.70 -1.95z"/>
  <path d="M340.60 304.55 c-0.80 -2.55 -0.75 -4.70 0 -4.45 0.45 0.15 2.90 5.40 2.90 6.25 0 0.10 -0.55 0.15 -1.15 0.15 -0.95 0 -1.30 -0.40 -1.75 -1.95z"/>
  <path d="M683.25 303.65 c0.20 -0.50 0.50 -1.30 0.60 -1.75 0.50 -1.65 1.65 -1 1.65 0.85 0 1.55 -0.15 1.75 -1.30 1.75 -1.05 0 -1.25 -0.15 -0.95 -0.85z"/>
  <path d="M518 302.80 c0 -0.65 -0.25 -1.30 -0.55 -1.40 -0.75 -0.25 -1.25 -4.90 -0.55 -4.90 0.70 0 0.90 0.35 2.35 4.20 l1.25 3.30 -1.25 0 c-1 0 -1.25 -0.25 -1.25 -1.20z"/>
  <path d="M506.65 299.40 c0.95 -2.30 1.85 -2.40 1.85 -0.20 0 1.60 -0.15 1.80 -1.25 1.80 -1.20 0 -1.25 -0.05 -0.60 -1.60z"/>
  <path d="M338.30 298.70 c-0.55 -1.40 -0.30 -2.20 0.65 -2.20 0.60 0 1.15 0.55 1.50 1.50 0.45 1.40 0.40 1.50 -0.65 1.50 -0.65 0 -1.35 -0.35 -1.50 -0.80z"/>
  <path d="M508.40 294.50 c0.85 -2.70 2.10 -3.40 2.10 -1.10 0 2.50 -0.55 3.60 -1.75 3.60 l-1.15 0 0.80 -2.50z"/>
  <path d="M513.40 289.90 l-0.75 -2.65 -0.30 2.15 c-0.30 1.85 -0.50 2.10 -1.65 2.10 -1.05 0 -1.25 -0.15 -0.95 -0.85 0.20 -0.50 0.90 -2.35 1.55 -4.15 0.65 -1.75 1.35 -3.30 1.60 -3.40 0.45 -0.15 3.10 7.50 3.10 8.85 0 0.30 -0.40 0.55 -0.95 0.55 -0.70 0 -1.10 -0.65 -1.65 -2.60z"/>
 </g>
 <g fill="#ffffff">
  <path d="M655.90 620.50 c-0.40 -0.95 -1.05 -2.65 -1.40 -3.75 -0.35 -1.10 -0.90 -2.65 -1.25 -3.50 -0.40 -0.80 -1.25 -3.20 -2 -5.25 -0.70 -2.05 -1.40 -4.10 -1.55 -4.50 -0.20 -0.40 -3.55 -10.30 -7.55 -22 -9.40 -27.50 -10.10 -29.60 -10.45 -30.50 -0.60 -1.40 -10.75 -31.25 -15.30 -44.95 l-4.55 -13.65 0.85 -2.60 c0.50 -1.40 1.20 -3.20 1.55 -4.05 0.35 -0.80 1.50 -3.65 2.50 -6.25 1 -2.60 2.15 -5.40 2.50 -6.25 1.80 -4.10 2.65 -6.10 2.95 -7.25 0.20 -0.70 0.55 -1.70 0.80 -2.25 0.25 -0.55 0.90 -2.35 1.50 -4 0.55 -1.65 1.20 -3.45 1.45 -4 0.25 -0.55 0.90 -2.05 1.50 -3.35 0.60 -1.30 1.05 -2.60 1.05 -2.90 0 -0.30 0.20 -0.90 0.50 -1.40 0.25 -0.45 0.90 -2.10 1.45 -3.60 1.95 -5.50 3.20 -8.75 3.55 -9.25 0.20 -0.25 0.50 -1.15 0.70 -2 0.20 -0.80 0.65 -2.15 1.05 -3 0.35 -0.80 1.95 -5 3.50 -9.25 1.55 -4.25 3.15 -8.40 3.50 -9.25 0.35 -0.80 1.60 -4.20 2.75 -7.50 1.15 -3.30 2.90 -8 3.85 -10.50 0.95 -2.45 2.20 -5.75 2.75 -7.25 0.60 -1.50 1.35 -3.40 1.65 -4.25 0.35 -0.80 1.25 -3.20 2 -5.25 0.75 -2.05 1.55 -4.15 1.80 -4.60 0.25 -0.50 0.45 -1.15 0.45 -1.45 0 -0.30 0.30 -1.25 0.70 -2.10 0.35 -0.90 1.40 -3.50 2.25 -5.85 0.90 -2.35 1.95 -5 2.35 -5.90 0.35 -0.90 0.70 -1.90 0.70 -2.20 0 -0.30 0.55 -1.80 1.25 -3.35 0.65 -1.55 2.90 -7.35 4.95 -12.95 2.10 -5.60 4.10 -10.90 4.50 -11.75 0.75 -1.65 7.30 -19.70 7.30 -20.10 0 -0.15 0.45 -1.20 0.95 -2.40 0.55 -1.15 1.35 -3.30 1.80 -4.75 0.45 -1.45 1.10 -2.75 1.45 -2.90 0.30 -0.10 21.20 -0.15 46.40 -0.10 l45.90 0.15 -4.55 11.25 c-2.50 6.20 -5.10 12.70 -5.80 14.50 -3.45 9.20 -4.20 11.20 -6.15 16.50 -1.20 3.15 -2.45 6.45 -2.80 7.35 -0.40 0.85 -0.70 1.75 -0.70 2 0 0.50 -2.25 6.20 -4.45 11.15 -0.55 1.25 -1.15 2.95 -1.35 3.75 -0.20 0.85 -0.50 1.75 -0.70 2 -0.25 0.30 -0.90 1.90 -1.45 3.60 -1 2.90 -1.35 3.85 -2.80 7.40 -0.35 0.85 -0.80 2.05 -1 2.75 -0.15 0.70 -0.50 1.75 -0.80 2.40 -0.25 0.60 -0.65 1.60 -0.90 2.25 -0.30 0.60 -1.30 3.35 -2.30 6.10 -1.05 2.75 -2.05 5.40 -2.30 5.90 -0.50 0.90 -4.05 10.60 -5.25 14.35 -0.40 1.25 -1.15 3.15 -1.65 4.25 -0.50 1.10 -1.05 2.55 -1.25 3.25 -0.20 0.70 -0.65 2.05 -1 3 -1.30 3.45 -2.20 5.80 -3.55 9.50 -1.80 5 -2.75 7.45 -3.55 9.35 -0.40 0.85 -0.70 1.70 -0.70 1.90 0 0.20 -0.90 2.65 -1.95 5.45 -3.75 9.55 -6.20 16.05 -7.80 20.55 -2.15 6.05 -4.90 13.30 -7.50 20 -1.20 3.05 -2.85 7.50 -3.70 9.90 -0.85 2.45 -2.10 5.80 -2.75 7.50 -0.65 1.70 -2.50 6.60 -4.05 10.85 -1.55 4.25 -3 8.20 -3.25 8.75 -0.25 0.55 -0.70 1.90 -1.05 3 -0.30 1.10 -0.75 2.25 -0.95 2.50 -0.15 0.30 -0.95 2.30 -1.70 4.50 -0.80 2.20 -1.70 4.70 -2.10 5.60 -0.40 0.85 -0.70 1.75 -0.70 1.95 0 0.25 -0.50 1.65 -1.05 3.20 -0.60 1.50 -1.40 3.65 -1.80 4.75 -0.40 1.10 -0.95 2.40 -1.20 2.85 -0.25 0.50 -0.45 1.30 -0.45 1.80 0 0.50 -0.20 1.10 -0.45 1.35 -0.25 0.30 -1.05 2.30 -1.80 4.50 -0.70 2.20 -1.65 4.70 -2.05 5.60 -0.40 0.85 -0.70 1.80 -0.70 2.10 0 0.30 -0.20 0.95 -0.45 1.45 -0.70 1.35 -1.35 3.05 -2.80 7.10 -0.75 2.05 -1.80 4.80 -2.30 6.10 -0.55 1.30 -0.95 2.60 -0.95 2.90 0 0.30 -0.40 1.50 -0.95 2.65 -0.50 1.15 -3.35 8.85 -6.30 17.10 -2.95 8.25 -5.55 15.45 -5.75 16 -0.30 0.90 -0.45 0.80 -1.10 -0.75z"/>
  <path d="M503.90 551.70 c-0.15 -0.15 -17.55 -0.35 -38.60 -0.40 -21.05 -0.10 -38.45 -0.30 -38.60 -0.45 -0.20 -0.20 0.05 -1.40 0.50 -2.70 0.50 -1.30 1.10 -3.30 1.35 -4.35 0.25 -1.10 0.65 -2.20 0.85 -2.50 0.20 -0.30 0.60 -1.45 0.90 -2.55 0.75 -2.50 4.15 -12.65 4.70 -14 0.25 -0.55 2.25 -6.50 4.45 -13.25 2.25 -6.75 4.30 -12.65 4.55 -13.10 0.30 -0.50 0.50 -1.20 0.50 -1.60 0 -0.40 1.90 -6.40 4.20 -13.40 7 -21.05 13.10 -40.05 15.15 -46.90 0.10 -0.40 1.45 2.95 2.95 7.50 1.50 4.50 3.05 8.90 3.45 9.75 0.35 0.80 1.80 4.75 3.20 8.75 1.35 4 3.40 9.85 4.55 13 1.10 3.15 2.85 8.10 3.85 11 1 2.90 2 5.45 2.20 5.75 0.25 0.25 0.45 0.75 0.45 1.15 0 0.35 0.55 2.05 1.20 3.75 0.65 1.70 2 5.35 3 8.10 1 2.75 2.05 5.45 2.30 6 0.50 1.05 2.05 5.45 3.30 9.25 0.40 1.25 0.85 2.60 1 3 0.75 1.70 3.80 10.45 4.55 12.75 0.80 2.55 1.10 3.40 3.30 9.50 1.65 4.50 2.10 6.25 1.50 6.25 -0.25 0 -0.60 -0.15 -0.75 -0.30z"/>
  <path d="M522.95 551.15 l-2.85 -0.20 0.90 -2.85 c0.85 -2.75 2.15 -6.25 3 -8.35 0.25 -0.55 0.60 -1.55 0.75 -2.25 0.20 -0.70 0.65 -1.90 1.05 -2.75 0.35 -0.80 1.80 -4.65 3.15 -8.50 3 -8.45 6.20 -17.25 8.30 -22.75 0.35 -0.95 1.10 -3 1.65 -4.50 0.55 -1.50 2.05 -5.45 3.30 -8.75 2.05 -5.50 3.15 -8.60 7.05 -20 0.75 -2.20 1.65 -4.65 2 -5.50 0.35 -0.80 1 -2.60 1.50 -4 0.45 -1.35 1.05 -2.95 1.30 -3.50 0.55 -1.20 5.80 -16.10 6.70 -18.95 0.85 -2.85 1.55 -2.75 2.20 0.25 0.50 2.25 2.25 8 5.55 17.95 0.50 1.50 2.20 6.80 3.75 11.75 7.45 23.45 11.10 34.75 13.15 40.75 2.80 8.10 13.60 41.30 13.60 41.75 0 0.45 -69.35 0.80 -76.05 0.40z"/>
  <path d="M321.05 492.90 c-1.30 -4.20 -7.85 -22.20 -9.50 -26.15 -0.70 -1.65 -6 -16.05 -8.85 -24 -1.50 -4.10 -2.95 -7.95 -3.20 -8.50 -0.25 -0.55 -2.60 -6.85 -5.30 -14 -2.65 -7.10 -5 -13.30 -5.20 -13.75 -0.25 -0.40 -1.35 -3.45 -2.50 -6.75 -2.30 -6.40 -6.50 -17.60 -7.70 -20.35 -0.40 -0.90 -1.55 -4 -2.60 -6.90 -1.70 -4.95 -11.50 -30 -12.95 -33.25 -0.35 -0.80 -1.15 -2.85 -1.75 -4.50 -0.60 -1.65 -1.40 -3.80 -1.85 -4.75 -1.15 -2.60 -1.40 -3.40 -2.95 -7.75 -0.75 -2.20 -1.75 -4.90 -2.20 -6 -0.50 -1.10 -2.35 -6 -4.10 -10.85 l-3.30 -8.90 46.20 0 46.15 0 0.70 1.40 c0.40 0.75 1.10 2.55 1.60 4.05 0.45 1.45 1.20 3.25 1.55 4 0.40 0.70 0.70 1.60 0.70 1.95 0 0.40 0.30 1.40 0.70 2.25 1.15 2.75 2.80 7.10 2.80 7.45 0 0.20 0.25 0.95 0.55 1.75 0.35 0.75 1.35 3.55 2.30 6.15 0.95 2.60 2.05 5.55 2.40 6.50 0.40 0.95 1.70 4.55 2.95 8 1.20 3.45 3.50 9.65 5.05 13.75 1.55 4.15 3.60 9.55 4.50 12 0.90 2.50 2.10 5.75 2.75 7.25 0.60 1.50 1.60 4.20 2.25 6 0.65 1.80 1.65 4.50 2.25 6 0.60 1.50 1.25 3.30 1.50 4 0.20 0.70 1.45 3.95 2.75 7.25 1.30 3.30 2.55 6.80 2.85 7.75 0.30 0.95 0.90 2.65 1.40 3.75 0.50 1.10 1.40 3.35 2 5 0.65 1.65 1.45 3.80 1.85 4.75 2.50 6 4.60 11.75 4.75 12.95 0.10 0.85 -0.20 1.40 -0.90 1.75 -0.55 0.30 -0.95 0.80 -0.85 1.10 0.25 0.70 -9.70 10.20 -10.65 10.20 -0.35 0 -2.55 2.15 -4.80 4.75 -2.25 2.60 -4.45 4.75 -4.80 4.75 -0.85 0 -4.10 3 -4.10 3.75 0 0.80 -5.45 5.75 -6.30 5.75 -0.40 0 -0.65 0.25 -0.55 0.60 0.05 0.30 -0.45 0.85 -1.15 1.25 -0.70 0.35 -1 0.65 -0.75 0.65 0.75 0 -4.40 4.50 -5.15 4.50 -0.35 0 -0.80 0.40 -0.95 0.90 -0.50 1.30 -4.80 5.60 -5.65 5.60 -0.40 0 -2.30 1.70 -4.25 3.75 -1.90 2.05 -3.70 3.75 -4 3.75 -0.55 0 -3.25 2.70 -3.25 3.30 0 0.40 -8.90 9.20 -9.25 9.20 -0.10 0 -0.65 -1.40 -1.20 -3.10z"/>
  <path d="M509.05 473.90 c-2.05 -5.60 -4.40 -12.05 -5.30 -14.40 -0.90 -2.35 -2.45 -6.60 -3.45 -9.50 -1.05 -2.90 -2.05 -5.70 -2.25 -6.25 -1.25 -3 -2.10 -5.35 -3.10 -8.50 -0.60 -1.90 -1.25 -3.70 -1.50 -4 -0.25 -0.25 -0.45 -0.75 -0.45 -1.15 0 -0.60 -1.70 -5.30 -3 -8.35 -0.25 -0.55 -0.70 -1.90 -1.05 -3 -0.30 -1.10 -1 -2.90 -1.50 -4 -0.45 -1.10 -1.50 -3.80 -2.25 -6 -0.75 -2.20 -1.85 -5.10 -2.45 -6.50 -0.60 -1.35 -1.50 -3.45 -1.90 -4.60 -0.45 -1.15 -1.25 -3.05 -1.80 -4.25 -1.80 -3.95 -2.55 -6 -2.55 -7.10 0 -1.25 2.05 -7.70 5 -15.80 1.15 -3.15 2.70 -7.65 3.50 -10 1.70 -5.20 3.85 -10.95 4.50 -12.10 0.30 -0.50 0.50 -1.15 0.50 -1.50 0 -0.35 0.30 -1.25 0.70 -1.95 0.35 -0.70 1.60 -4.05 2.75 -7.50 1.15 -3.40 2.25 -6.55 2.50 -6.95 0.25 -0.45 0.60 -1.55 0.80 -2.50 0.20 -0.95 0.55 -2.05 0.80 -2.50 0.20 -0.40 1.55 -4.10 2.95 -8.25 1.40 -4.10 3.35 -9.75 4.35 -12.50 0.95 -2.75 2.40 -6.90 3.25 -9.25 0.80 -2.35 1.65 -4.70 1.95 -5.25 0.25 -0.55 0.90 -2.25 1.40 -3.75 0.55 -1.50 1.20 -2.80 1.45 -2.90 0.25 -0.05 1.55 3.20 2.85 7.25 1.30 4.05 2.65 8.10 3 8.90 0.85 1.90 3.35 9.05 7.25 20.75 4.90 14.60 9.85 28.60 12.15 34.50 0.70 1.80 2.55 6.95 4.05 11.50 1.55 4.55 3.35 9.70 4.05 11.50 0.65 1.80 1.55 4.45 2.05 5.85 l0.80 2.65 -2.85 7.10 c-1.60 3.95 -3.15 7.85 -3.55 8.65 -0.35 0.85 -1.10 2.85 -1.70 4.50 -0.60 1.65 -1.50 3.95 -2 5.05 -0.55 1.15 -1.10 2.75 -1.30 3.50 -0.20 0.80 -0.50 1.70 -0.70 1.95 -0.20 0.30 -2.25 5.70 -4.50 12 -2.25 6.35 -4.30 11.95 -4.55 12.50 -0.25 0.55 -0.65 1.70 -0.90 2.50 -0.25 0.85 -0.95 2.75 -1.55 4.25 -0.60 1.50 -1.85 4.90 -2.75 7.50 -0.95 2.60 -2.85 7.80 -4.30 11.50 -1.40 3.70 -3.30 8.95 -4.15 11.65 l-1.60 4.85 -3.65 -10.10z"/>
 </g>
</svg>